<svg width="782" height="145" viewBox="0 0 782 145" fill="none" xmlns="http://www.w3.org/2000/svg">
<path d="M322.224 110.96C317.296 110.96 312.624 110.48 308.208 109.52C303.856 108.496 299.984 106.704 296.592 104.144C293.264 101.584 290.64 98.0319 288.72 93.4879C286.8 88.9439 285.84 83.1199 285.84 76.0159C285.84 69.1679 286.864 63.5039 288.912 59.0239C290.96 54.4799 293.68 50.8959 297.072 48.2719C300.528 45.6479 304.336 43.7919 308.496 42.7039C312.72 41.6159 316.976 41.0719 321.264 41.0719C324.4 41.0719 327.12 41.2319 329.424 41.5519C331.728 41.8719 333.936 42.2879 336.048 42.7999L349.104 50.3839L342.384 65.2639L321.168 57.7759C318.096 57.7759 315.248 58.3839 312.624 59.5999C310.064 60.8159 307.984 62.7679 306.384 65.4559C304.848 68.0799 304.08 71.6319 304.08 76.1119C304.08 83.3439 305.68 88.4319 308.88 91.3759C312.144 94.2559 316.592 95.6959 322.224 95.6959C325.104 95.6959 327.344 95.5679 328.944 95.3119C330.608 94.9919 331.888 94.7359 332.784 94.5439V87.2479H320.592V73.0399H351.12L352.176 78.7999L350.064 86.7679V106.928C349.36 107.184 347.76 107.632 345.264 108.272C342.832 108.912 339.632 109.52 335.664 110.096C331.76 110.672 327.28 110.96 322.224 110.96ZM374.303 110.96C371.551 110.96 368.991 110.576 366.623 109.808C364.319 108.976 362.463 107.568 361.055 105.584C359.647 103.6 358.943 100.848 358.943 97.3279C358.943 94.1279 359.743 91.4719 361.343 89.3599C362.943 87.2479 365.119 85.6799 367.871 84.6559C370.623 83.6319 373.727 83.1199 377.183 83.1199C380.511 83.1199 383.007 83.5039 384.671 84.2719C386.335 84.9759 387.775 85.7119 388.991 86.4799L389.663 85.9039C389.663 83.9839 389.503 82.3839 389.183 81.1039C388.863 79.8239 388.127 78.8639 386.975 78.2239C385.823 77.5199 384.031 77.1679 381.599 77.1679C379.231 77.1679 376.703 77.3919 374.015 77.8399C371.391 78.2239 368.959 78.7359 366.719 79.3759C364.543 79.9519 362.911 80.5279 361.823 81.1039V66.7039C363.807 65.9999 366.623 65.3599 370.271 64.7839C373.983 64.1439 378.527 63.8239 383.903 63.8239C389.663 63.8239 394.207 64.5599 397.535 66.0319C400.927 67.4399 403.359 69.5199 404.831 72.2719C406.303 74.9599 407.039 78.1919 407.039 81.9679V94.7359L408.958 104.432L407.039 110.096H390.623V105.392L389.663 104.912C389.151 105.424 388.255 106.16 386.975 107.12C385.695 108.08 383.999 108.976 381.887 109.808C379.775 110.576 377.247 110.96 374.303 110.96ZM382.463 98.3839C384.191 98.3839 385.663 98.2239 386.879 97.9039C388.159 97.5839 389.087 97.2959 389.663 97.0399V95.2159C389.663 94.3839 389.055 93.5839 387.839 92.8159C386.687 92.0479 384.863 91.6639 382.367 91.6639C378.911 91.6639 377.183 92.8799 377.183 95.3119C377.183 96.3359 377.567 97.1039 378.335 97.6159C379.103 98.1279 380.479 98.3839 382.463 98.3839ZM416.621 70.5439L419.597 64.6879H433.901V68.8159L434.765 69.3919C435.469 68.7519 436.429 68.0159 437.645 67.1839C438.925 66.2879 440.461 65.4879 442.253 64.7839C444.045 64.0799 446.061 63.7279 448.301 63.7279C454.957 63.7279 459.725 65.9359 462.605 70.3519C463.757 68.7519 465.485 67.2479 467.789 65.8399C470.157 64.3679 473.421 63.6319 477.581 63.6319C483.341 63.6319 487.661 65.2639 490.541 68.5279C493.421 71.7919 494.861 76.3679 494.861 82.2559V94.5439L496.877 104.144L494.861 110H477.581V84.7519C477.581 82.3199 477.037 80.4639 475.949 79.1839C474.925 77.8399 473.293 77.1679 471.053 77.1679C469.581 77.1679 468.301 77.7119 467.213 78.7999C466.125 79.8879 465.581 81.2639 465.581 82.9279V110H448.301V84.8479C448.301 82.4159 447.757 80.5599 446.669 79.2799C445.645 77.9359 444.013 77.2639 441.773 77.2639L435.821 79.0879V110H418.541V81.1039L416.621 70.5439ZM528.559 110.96C523.631 110.96 519.247 110.224 515.407 108.752C511.567 107.28 508.559 104.816 506.383 101.36C504.207 97.9039 503.119 93.2319 503.119 87.3439C503.119 83.1199 503.823 79.5039 505.231 76.4959C506.703 73.4879 508.655 71.0559 511.087 69.1999C513.519 67.2799 516.239 65.9039 519.247 65.0719C522.255 64.1759 525.359 63.7279 528.559 63.7279C534.063 63.7279 538.287 64.2719 541.231 65.3599C544.239 66.4479 546.223 67.3119 547.183 67.9519L551.983 83.2159L550.063 89.1679H520.303C520.751 91.5359 521.935 93.5199 523.855 95.1199C525.775 96.7199 528.943 97.5199 533.359 97.5199C536.815 97.5199 539.791 97.1359 542.287 96.3679C544.783 95.5999 546.735 94.9279 548.143 94.3519V107.216C546.223 108.24 543.439 109.136 539.791 109.904C536.207 110.608 532.463 110.96 528.559 110.96ZM520.399 83.0239L533.647 81.1039L532.783 76.9759C532.335 76.7199 531.663 76.5279 530.767 76.3999C529.935 76.2719 529.199 76.2079 528.559 76.2079C526.767 76.2079 525.263 76.5919 524.047 77.3599C522.895 78.1279 521.999 79.0559 521.359 80.1439C520.783 81.1679 520.463 82.1279 520.399 83.0239Z" fill="white"/>
<path d="M657.167 79.6884C664.463 79.6884 670.704 80.3917 675.888 81.7997C684.079 84.0398 688.175 87.7842 688.175 93.0322C688.175 94.0563 687.76 96.5844 686.928 100.616C686.224 103.944 685.167 108.904 683.759 115.496C683.311 117.992 683.087 119.88 683.087 121.16C683.087 122.504 683.279 123.752 683.663 124.904L660.911 124.04C660.847 123.592 660.815 123.144 660.815 122.696C660.815 121.224 661.008 119.688 661.392 118.088C656.4 122.184 649.935 124.232 641.999 124.232C637.135 124.232 633.007 123.496 629.615 122.024C624.879 120.04 622.512 116.968 622.512 112.808C622.512 106.257 627.231 101.621 636.67 98.9013L641.513 104.789C641.857 105.207 642.016 105.748 641.955 106.286L641.021 114.48C640.873 115.788 642.007 116.881 643.309 116.684L655.387 114.853C655.714 114.804 656.049 114.836 656.361 114.948L667.86 119.072C669.1 119.517 670.423 118.663 670.529 117.351L671.192 109.13C671.236 108.59 671.497 108.09 671.915 107.746L678.725 102.142C679.936 101.144 679.58 99.2034 678.093 98.7021L667.496 95.1298C667.125 95.0047 666.798 94.7735 666.558 94.4648L664.729 92.121C664.601 91.9012 664.443 91.6964 664.252 91.5087L660.122 86.2128C659.418 85.3096 658.1 85.1812 657.234 85.9316L649.329 92.789C649.033 93.0455 648.668 93.2094 648.28 93.2607L644.229 93.7949C640.051 93.3461 634.764 92.7413 628.367 91.9755C632.591 83.7838 642.191 79.6885 657.167 79.6884ZM752.908 77.4804C760.46 77.4805 766.86 79.1438 772.107 82.4716C778.315 86.3756 781.42 91.8478 781.42 98.8876C781.42 101.448 781.132 103.688 780.556 105.608C767.244 104.904 754.668 104.328 742.828 103.88C742.572 104.904 742.443 105.864 742.443 106.76C742.443 110.6 745.036 112.519 750.22 112.519C754.636 112.519 757.58 110.824 759.052 107.432L779.788 109.544C777.164 114.472 772.811 118.184 766.731 120.68C761.547 122.856 755.755 123.944 749.355 123.944C739.116 123.944 731.659 121.768 726.987 117.416C723.275 113.96 721.42 109.64 721.42 104.456C721.42 100.552 722.476 96.6481 724.588 92.7441C726.636 89.0961 729.292 86.056 732.556 83.624C738.06 79.528 744.844 77.4804 752.908 77.4804ZM695.767 69.0322C698.199 69.6722 701.783 70.6321 706.519 71.912C706.775 74.344 707.159 78.0559 707.671 83.0478L713.719 84.872C713.975 86.856 714.263 89.8319 714.583 93.7997L708.631 91.9755C708.823 93.8315 709.207 98.0564 709.783 104.648C709.975 106.503 710.135 107.655 710.263 108.103C710.711 109.191 711.543 109.927 712.759 110.311C713.655 110.567 714.775 110.664 716.119 110.6C716.311 113.672 716.567 117.32 716.887 121.544C715.351 121.416 713.047 121.192 709.975 120.872C706.455 120.424 703.351 118.248 700.663 114.344C698.935 111.72 697.879 107.72 697.495 102.344C697.239 99.2078 696.823 94.504 696.247 88.2324L691.446 86.7919C691.254 84.808 690.967 81.832 690.583 77.8642L695.959 79.496C695.895 75.0802 695.831 71.5921 695.767 69.0322ZM601.56 45.704C607.064 45.704 610.776 45.8001 612.696 45.9921C616.984 46.5681 620.408 47.8481 622.968 49.832C626.488 52.52 628.248 56.2961 628.248 61.1601C628.248 70.248 623.32 76.9356 613.464 81.2236C614.616 87.4316 616.344 96.7124 618.648 109.064C610.968 109.448 603.128 109.96 595.128 110.6C594.168 101.64 593.176 93.3838 592.152 85.832C589.976 85.96 587.8 86.1195 585.624 86.3115C582.424 97.5115 579.864 106.152 577.944 112.232C570.648 113 563.224 113.864 555.672 114.824C563.288 91.7202 569.88 68.8721 575.448 46.2802C585.112 45.8962 593.816 45.704 601.56 45.704ZM752.716 87.7519C747.788 87.7519 745.003 90.2157 744.363 95.1435C749.355 95.3355 754.476 95.5603 759.724 95.8163C759.916 95.0485 760.012 94.3122 760.012 93.6083C760.012 89.7044 757.58 87.7519 752.716 87.7519ZM601.848 59.1435C600.44 59.1435 597.304 59.2396 592.44 59.4316C591.8 62.1836 590.776 66.344 589.368 71.912C591.16 71.848 593.657 71.752 596.856 71.624C604.28 71.2399 607.992 68.6158 607.992 63.7519C607.992 60.6799 605.944 59.1435 601.848 59.1435Z" fill="#FFED65"/>
<path d="M151.025 138.442L161.525 115.942M161.525 115.942H235.525C236.882 115.706 238.718 115.086 240.525 113.958M161.525 115.942C159.85 114.79 157.189 112.826 155.688 108.442M240.025 24.9022C255.184 27.4012 261.654 38.6517 263.025 44.4417C263.025 65.1083 263.225 109.242 264.025 120.442C264.628 128.876 258.085 135.004 252.254 138.442M240.025 24.9022C238.603 24.6677 237.104 24.5103 235.525 24.4417C217.125 23.6417 182.525 24.1083 167.525 24.4417C166.463 24.5349 165.282 24.686 164.021 24.9022M240.025 24.9022C246.425 28.0707 247.692 37.2487 247.525 41.4417C247.359 57.6083 247.025 92.3417 247.025 101.942C247.025 104.275 246.572 106.261 245.832 107.942M164.021 24.9022C154.013 26.6194 139.025 32.4415 139.025 45.9417C139.025 61.1417 139.025 104.942 139.025 124.942C138.938 126.159 139.067 127.735 139.553 129.442M164.021 24.9022C155.218 25.3879 154.523 34.2975 154.525 38.4417C154.525 53.9417 154.525 88.4417 154.525 97.9417C154.525 102.942 154.742 105.409 155.525 107.942M155.525 107.942L140.525 129.442H139.553M155.525 107.942C155.578 108.112 155.632 108.278 155.688 108.442M155.525 107.942L155.688 108.442M139.553 129.442C140.93 134.278 145.177 140.168 155.525 141.942L247.025 140.942C248.507 140.407 250.342 139.569 252.254 138.442M240.525 113.958L252.254 138.442M240.525 113.958C242.584 112.673 244.603 110.729 245.832 107.942M245.832 107.942L260.525 127.942" stroke="white" stroke-width="6"/>
<path d="M204.752 92.3999C204.112 86.4266 203.451 80.9226 202.768 75.8879C201.317 75.9733 199.867 76.0799 198.416 76.2079C196.283 83.6746 194.576 89.4346 193.296 93.4879C188.432 93.9999 183.483 94.5759 178.448 95.2159C183.525 79.8133 187.92 64.5813 191.632 49.5199C198.075 49.2639 203.877 49.1359 209.04 49.1359C212.709 49.1359 215.184 49.1999 216.464 49.3279C219.323 49.7119 221.605 50.5653 223.312 51.8879C225.659 53.6799 226.832 56.1973 226.832 59.4399C226.832 65.4986 223.547 69.9573 216.976 72.8159C217.744 76.9546 218.896 83.1413 220.432 91.3759C215.312 91.6319 210.085 91.9733 204.752 92.3999ZM213.328 61.1679C213.328 59.1199 211.963 58.0959 209.232 58.0959C208.293 58.0959 206.203 58.1599 202.96 58.2879C202.533 60.1226 201.851 62.8959 200.912 66.6079C202.107 66.5653 203.771 66.5013 205.904 66.4159C210.853 66.1599 213.328 64.4106 213.328 61.1679Z" fill="white"/>
<path d="M66.816 73.6399C63.5307 73.6399 60.416 73.3199 57.472 72.6799C54.5707 71.9973 51.9893 70.8026 49.728 69.0959C47.5093 67.3893 45.76 65.0213 44.48 61.9919C43.2 58.9626 42.56 55.0799 42.56 50.3439C42.56 45.7786 43.2427 42.0026 44.608 39.0159C45.9733 35.9866 47.7867 33.5973 50.048 31.8479C52.352 30.0986 54.8907 28.8613 57.664 28.1359C60.48 27.4106 63.3173 27.0479 66.176 27.0479C68.2667 27.0479 70.08 27.1546 71.616 27.3679C73.152 27.5813 74.624 27.8586 76.032 28.1999L84.736 33.2559L80.256 43.1759L66.112 38.1839C64.064 38.1839 62.1653 38.5893 60.416 39.3999C58.7093 40.2106 57.3227 41.5119 56.256 43.3039C55.232 45.0533 54.72 47.4213 54.72 50.4079C54.72 55.2293 55.7867 58.6213 57.92 60.5839C60.096 62.5039 63.0613 63.4639 66.816 63.4639C68.736 63.4639 70.2293 63.3786 71.296 63.2079C72.4053 62.9946 73.2587 62.8239 73.856 62.6959V57.8319H65.728V48.3599H86.08L86.784 52.1999L85.376 57.5119V70.9519C84.9067 71.1226 83.84 71.4213 82.176 71.8479C80.5547 72.2746 78.4213 72.6799 75.776 73.0639C73.1733 73.4479 70.1867 73.6399 66.816 73.6399Z" fill="white"/>
<path d="M15.0253 117.442L25.5253 94.9417M25.5253 94.9417H99.5253C100.882 94.7057 102.718 94.0858 104.525 92.9577M25.5253 94.9417C23.8501 93.7899 21.1892 91.8264 19.688 87.4417M104.025 3.90223C119.184 6.40119 125.654 17.6517 127.025 23.4417C127.025 44.1083 127.225 88.2417 128.025 99.4417C128.628 107.876 122.085 114.004 116.254 117.442M104.025 3.90223C102.603 3.66773 101.104 3.51029 99.5253 3.44166C81.1253 2.64166 46.5253 3.10833 31.5253 3.44166C30.4628 3.53486 29.2816 3.686 28.0214 3.90223M104.025 3.90223C110.425 7.07069 111.692 16.2487 111.525 20.4417C111.359 36.6083 111.025 71.3417 111.025 80.9417C111.025 83.2748 110.572 85.2614 109.832 86.9417M28.0214 3.90223C18.0132 5.61945 3.02525 11.4415 3.02525 24.9417C3.02525 40.1417 3.02525 83.9417 3.02525 103.942C2.9383 105.159 3.06683 106.735 3.55286 108.442M28.0214 3.90223C19.2183 4.38789 18.5227 13.2975 18.5253 17.4417C18.5253 32.9417 18.5253 67.4417 18.5253 76.9417C18.5253 81.9417 18.7423 84.4086 19.5253 86.9417M19.5253 86.9417L4.52527 108.442H3.55286M19.5253 86.9417C19.5778 87.1117 19.6321 87.2784 19.688 87.4417M19.5253 86.9417L19.688 87.4417M3.55286 108.442C4.93 113.278 9.1773 119.168 19.5253 120.942L111.025 119.942C112.507 119.407 114.342 118.569 116.254 117.442M104.525 92.9577L116.254 117.442M104.525 92.9577C106.584 91.6728 108.603 89.7286 109.832 86.9417M109.832 86.9417L124.525 106.942" stroke="white" stroke-width="6"/>
</svg>
